<svg xmlns="http://www.w3.org/2000/svg" viewBox="0 0 600 800"><defs><linearGradient id="bg" x2="0" y2="1"><stop stop-color="#1a3435"/><stop offset="1" stop-color="#617a67"/></linearGradient><filter id="grain"><feTurbulence type="fractalNoise" baseFrequency=".65" numOctaves="3" stitchTiles="stitch"/><feColorMatrix type="saturate" values="0"/><feComponentTransfer><feFuncA type="linear" slope=".1"/></feComponentTransfer><feBlend in="SourceGraphic" mode="multiply"/></filter></defs><g filter="url(#grain)"><path fill="url(#bg)" d="M0 0h600v800H0z"/><circle cx="350" cy="250" r="83" fill="#e2dcbb"/><circle cx="383" cy="226" r="75" fill="#294343"/><g fill="#dccfa8"><circle cx="81" cy="98" r="2"/><circle cx="219" cy="148" r="3"/><circle cx="478" cy="118" r="2"/><circle cx="532" cy="297" r="3"/><circle cx="124" cy="284" r="2"/><circle cx="195" cy="340" r="3"/><circle cx="433" cy="372" r="2"/><circle cx="508" cy="435" r="2"/><circle cx="240" cy="54" r="2"/><path d="m157 196 3 10 10 3-10 3-3 10-3-10-10-3 10-3m270-129 2 7 7 2-7 2-2 7-2-7-7-2 7-2"/></g><path d="M0 586q130-86 291-28t309 33v209H0" fill="#374d3e"/><path d="M0 673q139-72 303-22t297 26v123H0" fill="#2c4135"/><ellipse cx="299" cy="738" rx="155" ry="23" fill="#1d332b" opacity=".6"/><path d="M207 594l-2 104-7 28h26l21-131 19 100 7 29h23l-10-83-5-54" fill="#1d2c29"/><path d="M210 465q37-30 66-1l19 139q-60 23-100-2" fill="#82917a"/><path d="M211 427q-9-44 25-44 33-8 42 30l-5 42q-29 26-53-3" fill="#967d65"/><path d="M211 424q-17-21-2-35 29-27 58-2 20 15 13 41-21 2-40-20l-20 16" fill="#20342d"/><path d="M281 468l41 68-9 36-14-7 7-25-45-44" fill="#8f7860"/><path d="M354 471q32-22 56 3l32 155q-61 12-110-4" fill="#c6c4a5"/><path d="M349 429q-7-57 31-56 39 0 39 52l-4 77-82 1" fill="#273a2f"/><path d="M359 419q11-29 31-11 16 13 10 46-24 22-40-8" fill="#a38a6d"/><path d="M354 478l-34 52-19 34 15 9 22-23 31-47" fill="#9c8469"/><path d="M350 625l-8 98h24l17-97M401 624l17 99h23l-9-100" fill="#8f8267"/><path d="M312 562q-16-10-19 3-3 10 20 10 13 5 13-5" fill="#9d846a"/><path d="M27 777l14-117m-8 63-27-39m28 59 37-25M522 800l-3-127m1 54 43-45m-42 67-37-40" fill="none" stroke="#6f7d61" stroke-width="5"/></g></svg>
